<svg width="29" height="32" viewBox="0 0 29 32" fill="none" xmlns="http://www.w3.org/2000/svg">
<path d="M18.8078 2.90185C19.0995 1.88365 18.5106 0.821346 17.4926 0.529138V0.529138C16.4745 0.23693 15.4128 0.825465 15.1211 1.84367L7.31365 29.0982C7.02198 30.1165 7.61082 31.1788 8.62887 31.471V31.471C9.64692 31.7632 10.7087 31.1746 11.0003 30.1564L18.8078 2.90185Z" fill="#B0BEC5"/>
<rect width="3.83555" height="27.6094" rx="1.91777" transform="matrix(-0.96119 -0.275887 -0.275388 0.961333 11.2899 1.05823)" fill="#DA771C"/>
<rect width="3.83555" height="27.6094" rx="1.91777" transform="matrix(-0.96119 -0.275887 -0.275388 0.961333 28.6962 1.05823)" fill="#DA771C"/>
<path d="M7.62155 30.4173C7.21358 29.2643 8.06885 28.0544 9.29194 28.0544H23.3049C24.2835 28.0544 25.0768 28.8477 25.0768 29.8263V29.8263C25.0768 30.8049 24.2835 31.5982 23.3049 31.5982H9.29194C8.54121 31.5982 7.87196 31.1251 7.62155 30.4173V30.4173Z" fill="#B0BEC5"/>
<rect x="5.90039" y="11.9601" width="18.2912" height="3.54372" fill="#DA771C"/>
</svg>
