<svg width="304" height="339" viewBox="0 0 304 339" fill="none" xmlns="http://www.w3.org/2000/svg">
<path d="M199.245 30.7409C202.335 19.9543 196.097 8.70062 185.312 5.60504V5.60504C174.527 2.50946 163.279 8.74426 160.189 19.5308L77.4784 308.259C74.3884 319.046 80.6265 330.299 91.4115 333.395V333.395C102.196 336.491 113.444 330.256 116.534 319.469L199.245 30.7409Z" fill="#B0BEC5"/>
<rect width="40.6328" height="292.487" rx="16" transform="matrix(-0.96119 -0.275887 -0.275388 0.961333 119.603 11.2101)" fill="#DA771C"/>
<rect width="40.6328" height="292.487" rx="20.3164" transform="matrix(-0.96119 -0.275887 -0.275388 0.961333 304 11.2101)" fill="#DA771C"/>
<path d="M80.7402 322.233C76.4183 310.018 85.4788 297.202 98.4359 297.202H246.886C257.253 297.202 265.656 305.605 265.656 315.972V315.972C265.656 326.339 257.253 334.743 246.886 334.743H98.4359C90.4828 334.743 83.393 329.731 80.7402 322.233V322.233Z" fill="#B0BEC5"/>
<rect x="62.5074" y="126.702" width="193.773" height="37.5412" fill="#DA771C"/>
</svg>
